<svg viewBox="0 0 1440 855" fill="none" xmlns="http://www.w3.org/2000/svg">
<path opacity="0.1" fill-rule="evenodd" clip-rule="evenodd" d="M64.6252 692.409L-919.12 988.977C-1004.49 1015.18 -1013.6 1074.53 -939.494 1121.65L-74.1381 1704.89C14.1367 1769.84 98.0781 1794.04 227.343 1747.01L1209.66 1451.78C1295.03 1425.58 1304.14 1366.23 1230.04 1319.1L403.802 734.879C315.028 666.677 226.063 649.445 64.6252 692.409Z" fill="#5299E0"/>
<path opacity="0.15" fill-rule="evenodd" clip-rule="evenodd" d="M1209.36 393.601L2228.17 577.78C2315.2 594.373 2330.62 651.928 2262.64 706.433L1472.4 1375.42C1405.32 1433.31 1281.37 1466.53 1197.69 1449.04L178.873 1264.86C91.8429 1248.27 76.4234 1190.71 144.406 1136.21L934.65 467.22C1012.63 399.338 1126.59 379.497 1209.36 393.601Z" fill="#5299E0"/>
<path opacity="0.2" fill-rule="evenodd" clip-rule="evenodd" d="M967.484 838.396L881.673 1870.31C875.172 1958.68 926.767 1988.47 997.002 1936.91L1847.63 1346.62C1920.9 1296.81 1985.06 1185.66 1989.83 1100.29L2075.64 68.374C2082.14 -19.9972 2030.55 -49.7898 1960.31 1.7788L1109.68 592.062C1023.94 649.831 975.285 754.781 967.484 838.396Z" fill="#5299E0"/>
</svg>